<?xml version="1.0" encoding="UTF-8"?>
<svg id="Layer_1" data-name="Layer 1" xmlns="http://www.w3.org/2000/svg" version="1.1" viewBox="0 0 322.1 126.2">
  <defs>
    <style>
      .cls-1 {
        fill: none;
        stroke: #285363;
        stroke-miterlimit: 10;
        stroke-width: 7px;
      }

      .cls-2 {
        fill: #285363;
      }

      .cls-2, .cls-3, .cls-4 {
        stroke-width: 0px;
      }

      .cls-3 {
        fill: #fff;
      }

      .cls-4 {
        fill: #80d0d5;
      }
    </style>
  </defs>
  <g>
    <g>
      <g>
        <path class="cls-2" d="M11.8,76.6h0l.9.6-.8-.6ZM76.4,27.4l-15.6-.9-13.9-9.1,11.8.7-12.1-.8,14.1,9.2,15.8.9h0Z"/>
        <path class="cls-3" d="M92,51.1l-32.3-22.2-17.6-11.5-13.7,10.4,3.7,18,14.4,9.3-4.8-20.6,29.1,20c16.1,11.7,18,23.4,18.3,26.7.1,1.7.3,3.6.5,5.8h0c0,0,.1,2.2.1,2.2,1-.7,2.2-1.6,3.5-2.6,3.7-2.7,8.2-5.9,10.2-7.2v-4.5s0-.2,0-.2c0-5.2-.3-15.4-11.3-23.7ZM82.1,50.7c0,0,0,.2,0,.3,0,.1,0,.2,0,.3,0,.1,0,.2-.1.3,0,0,0,.1,0,.2s0,.1-.1.2c0,0,0,.1-.1.2,0,0,0,0,0,0,0,0,0,.1-.1.2-.1.2-.3.3-.4.5s-.3.3-.5.4c-.1.1-.3.2-.5.3,0,0-.2,0-.2.1,0,0-.1,0-.2,0-.1,0-.2,0-.3.1-.1,0-.2,0-.3.1,0,0-.2,0-.2,0,0,0,0,0,0,0-.1,0-.2,0-.4,0-.4,0-.8,0-1.2,0,0,0-.1,0-.2,0,0,0-.1,0-.2,0-.1,0-.2,0-.3-.1,0,0-.1,0-.1,0,0,0,0,0,0,0,0,0-.1,0-.2-.1-.1,0-.2-.1-.3-.2,0,0-.1-.1-.2-.2s-.1-.1-.2-.2c0-.1-.2-.3-.3-.4,0-.1-.1-.2-.2-.3,0,0,0,0,0-.1,0,0,0-.2,0-.3,0,0,0-.2,0-.3,0-.5,0-1,.2-1.6,0,0,0-.1,0-.2,0,0,0-.1,0-.2,0-.1.1-.2.2-.3,0-.1.1-.2.2-.3,0,0,0-.1.1-.2,0,0,0,0,.1-.1,0,0,0,0,.1-.1,0,0,.2-.2.3-.2,0,0,0,0,.1,0,.1-.1.3-.2.4-.3,0,0,.2-.1.3-.1,0,0,.1,0,.2,0,.1,0,.2,0,.3-.1,0,0,.2,0,.2,0,.1,0,.2,0,.3,0,.1,0,.2,0,.3,0,0,0,.1,0,.2,0,0,0,.2,0,.3,0,.3,0,.5,0,.8,0,.2,0,.3,0,.5.2,0,0,.2,0,.2.1,0,0,.1,0,.2.1.1,0,.2.1.3.2,0,0,0,0,.1.1,0,0,.2.2.2.2,0,0,0,0,0,.1,0,0,0,0,0,.1,0,0,0,0,0,.1,0,0,0,0,0,0,0,0,0,.1,0,.2,0,0,0,.1,0,.2,0,0,0,.1,0,.2,0,0,0,0,0,.1,0,0,0,.2,0,.3,0,0,0,.2,0,.2,0,.2,0,.4,0,.6ZM91.4,64.4c-.2,0-.3.1-.5.2,0,0-.1,0-.2,0,0,0,0,0,0,0,0,0-.2,0-.3,0,0,0-.1,0-.2,0-.2,0-.3,0-.5,0s-.3,0-.5,0h0c-.2,0-.3,0-.5-.1-.1,0-.3,0-.4-.1,0,0,0,0-.1,0,0,0-.2,0-.2-.1-.1,0-.2-.1-.3-.2,0,0-.1-.1-.2-.2,0,0-.2-.2-.2-.3,0,0-.1-.1-.2-.2,0,0,0-.1-.1-.2,0,0,0-.1,0-.2,0,0,0,0,0-.1,0-.2-.1-.3-.2-.5,0,0,0-.1,0-.2,0-.2,0-.4,0-.7,0-.1,0-.2,0-.3,0-.1,0-.2.1-.3,0-.1,0-.2.1-.4,0-.2.2-.4.3-.5,0-.1.1-.2.2-.3,0,0,0,0,0,0,0,0,0,0,.1-.1,0,0,0,0,.1-.1,0,0,.1-.1.2-.2,0,0,0,0,0,0,0,0,.1-.1.2-.1,0,0,0,0,.1,0,0,0,0,0,.1,0,0,0,.2-.1.2-.1.1,0,.2-.1.3-.2.1,0,.2,0,.3-.1,0,0,.1,0,.2,0,.1,0,.3,0,.4-.1,0,0,.1,0,.2,0,0,0,.2,0,.3,0,0,0,.2,0,.3,0,.4,0,.8,0,1.3.1.1,0,.2,0,.3.1,0,0,0,0,0,0,0,0,.2,0,.3.1,0,0,0,0,.1,0,0,0,0,0,.1,0,0,0,.2.1.2.2.1,0,.2.2.3.2,0,0,.1.1.1.2,0,0,0,0,.1.1,0,0,0,.1.1.2,0,0,.1.2.1.3,0,0,0,.1,0,.2,0,0,0,.1,0,.2,0,.1,0,.2,0,.3,0,0,0,0,0,0,0,0,0,.1,0,.2,0,0,0,.1,0,.2s0,.2,0,.3c0,0,0,0,0,.1,0,0,0,.1,0,.2,0,0,0,0,0,.1,0,.1,0,.2,0,.3,0,0,0,0,0,0,0,0,0,0,0,0,0,0,0,.2-.1.2,0,0,0,.2-.1.3,0,.2-.2.3-.3.5,0,0-.1.2-.2.2,0,0-.1.1-.2.2,0,0-.1.1-.2.2-.3.2-.6.4-.9.6,0,0,0,0-.1,0ZM98.8,73.8c0,.2-.1.5-.2.7,0,.1,0,.2-.1.3,0,.1-.1.2-.2.3,0,.1-.1.2-.2.3-.1.2-.3.4-.5.5-.1.1-.2.2-.4.3,0,0-.2.1-.3.2-.1,0-.2.1-.3.2,0,0-.1,0-.2.1,0,0-.2,0-.3.1,0,0-.2,0-.2,0-.1,0-.3,0-.4.1-.3,0-.5,0-.8,0s-.4,0-.6,0c0,0-.2,0-.2,0,0,0-.1,0-.2,0,0,0-.1,0-.2,0-.1,0-.3-.1-.4-.2,0,0-.1,0-.2-.1,0,0-.1,0-.2-.1,0,0-.1,0-.1-.1,0,0,0,0-.1-.1,0,0,0,0-.1-.1,0,0-.1-.2-.2-.3,0-.1-.1-.2-.2-.3,0,0,0,0,0-.1,0,0,0-.1,0-.2,0,0,0-.1,0-.2,0,0,0,0,0,0,0-.1,0-.2,0-.3,0-.1,0-.2,0-.3,0-.2,0-.4,0-.6,0,0,0-.2,0-.3,0,0,0-.1,0-.2,0,0,0,0,0,0,0,0,0-.1,0-.2,0,0,0,0,0,0,0-.1,0-.2.1-.3,0,0,0-.2.1-.2,0,0,0,0,0-.1,0-.2.2-.3.3-.4,0,0,.1-.2.2-.2,0,0,0,0,.1-.1.2-.2.3-.3.5-.4,0,0,0,0,.1-.1.2-.1.3-.2.5-.3,0,0,.1,0,.2,0,0,0,0,0,0,0,0,0,.1,0,.2,0,.1,0,.2,0,.3-.1.1,0,.2,0,.3,0,.2,0,.5,0,.7,0s.1,0,.2,0c0,0,0,0,.1,0,0,0,.1,0,.2,0,.1,0,.3,0,.4,0,0,0,.2,0,.3,0,0,0,.2,0,.3.1,0,0,.2,0,.2.1.3.2.6.5.8.8.1.2.2.3.3.5,0,.2.1.4.2.5,0,0,0,.2,0,.3,0,.3,0,.6,0,.9Z"/>
      </g>
      <path class="cls-2" d="M93.6,62.3c-.8,1.7-3,2.7-4.8,2.2-1.8-.5-2.7-2.3-1.8-4.1.8-1.7,3-2.7,4.8-2.2,1.8.5,2.6,2.3,1.8,4.1Z"/>
      <path class="cls-2" d="M81.9,51.6c-.7,1.8-2.8,2.9-4.7,2.5-1.9-.4-2.8-2.2-2-4,.7-1.8,2.9-2.9,4.7-2.5,1.9.4,2.8,2.2,2,4Z"/>
      <path class="cls-2" d="M98.8,73.8c-.3,1.9-2.2,3.5-4.1,3.5s-3.2-1.5-2.8-3.5c.3-1.9,2.2-3.5,4.1-3.5s3.2,1.5,2.8,3.5Z"/>
      <polygon class="cls-4" points="76.5 27.4 60.6 26.5 46.5 17.3 58.6 18.1 58.9 18.2 59.2 18.2 60.8 18.3 76.4 27.4 76.5 27.4"/>
      <path class="cls-1" d="M41.7,118.2"/>
      <path class="cls-1" d="M106,78.5"/>
      <path class="cls-2" d="M122.5,40.1c-4.8-6.2-10.3-9.4-11-9.8l-13.5-8.8L67.2,1.2c-2.5-1.7-5.9-1.6-8.3.3L20,30.8c-5,3.7-12.2,8.9-17.9,12.9l-1.1.8s0,0,0,0v.5c-.2,1.8-.3,6.2-.4,13,0,4.6,1.8,10.3,5.2,14.1-.9.2-1.7.5-2.5,1-1.8,1.2-2.9,3.2-2.9,5.6,0,3.4,0,6.4,0,8.5q0,4,.6,4.5l41,28.5c1.2.8,9.5,5.8,17.1,5.8s3.7-.3,5.4-1.1c1-.5,1.9-1.1,2.7-1.8h0s51.2-38.4,51.2-38.4h0c3.4-2.6,7.7-6.4,10.1-15.4,3.5-13.3-1.3-23.2-6-29.2ZM42,17.4l17.6,11.5,32.3,22.2c11,8.3,11.3,18.5,11.3,23.7v.2c0,.5,0,.9,0,1.3v.6s0,2.6,0,2.6c-2,1.3-6.5,4.6-10.2,7.2-1.3.9-2.5,1.8-3.5,2.6v-2.2c-.1,0-.1,0-.1,0-.3-2.2-.4-4-.5-5.8-.2-3.3-2.2-15-18.3-26.7l-29.1-20,4.8,20.6-14.4-9.3-3.7-18,13.7-10.4ZM76.5,27.4l-15.8-.9-14.1-9.2,12.1.8h.3s.3,0,.3,0h1.7c0,.1,15.7,9.2,15.7,9.2h-.2s0,0,0,0h0ZM68.6,113.3c-.4,3.5-1.5,6.1-3.2,7.8-.2.2-.5.4-.7.6-.4.3-.9.6-1.4.8-7.4,3.5-20-4.6-20.1-4.6h0S3,90,3,90c0-1.4,0-5.3,0-11.2,0-1.5.6-2.7,1.7-3.5.7-.5,1.5-.7,2.5-.7s.2,0,.3,0h0c0,0,.1,0,.2,0h0c0,0,.2,0,.2,0,0,0,0,0,0,0,.5,0,1,.2,1.5.4l.8.5,1.4.9h0l.8.6h.1c0,0,7,4.7,7,4.7h0s1.2.9,1.2.9l4.1,7.4,2.3-1.3-3.6-6.6,6.5-3.8-1.3-2.3-6.8,4-11.4-7.5c-4.4-2.2-7.2-8.4-7.5-13.5,0-.4,0-.8,0-1.2,0-6.3.2-9.6.3-11.4l35.4,22.8h0s6.2,4.1,6.2,4.1c.3.2,26.4,16.9,23.6,39.8ZM126,68.6c-2.3,8.9-6.4,11.9-9.9,14.5-.3.2-.7.5-1,.7h0s-44.6,33.5-44.6,33.5c.3-1.1.6-2.4.7-3.7,1.2-10.2-2.7-20.8-11.3-30.6-6.5-7.3-13.2-11.6-13.5-11.8l-10.3-6.8h0c0,0-30.9-19.8-30.9-19.8,4-2.9,8.5-6.1,12.4-8.9l3.9-2.8c1.8-1.3,3.3-2.4,4.4-3.2l3.6,17.7,20.8,13.5-4.7-20.4,23.5,16.2c15.5,11.3,17,22.6,17.1,24.7.1,1.8.3,3.6.5,5.9l.3,6.8,1.9-1.3c.5-.3,2.4-1.7,5.6-4,4.1-3,9.2-6.6,10.6-7.6,0,0,0,0,0,0,0,0,0-.1,0-.2,0,0,0,0,0,0,.5-2.5,3.4-21-11.5-31.7-.3-.2-.7-.5-1-.7l-27.8-19.2,22.5,1.3-25.7-14.9-16-1c1.1-.8,2.3-1.7,3.5-2.6.4-.3.7-.6,1.1-.8.9-.7,1.8-1.4,2.8-2.1.6-.4,1.1-.8,1.7-1.3,2-1.5,4-3,5.5-4.2,0,0,0,0,.1,0,1.6-1.1,3.7-1.2,5.4-.1,0,0,0,0,0,0l32.1,21,12.1,8h0c0,0,5.6,3.2,10.3,9.2,6.2,8,8,17,5.5,26.8Z"/>
      <path class="cls-2" d="M65.4,121.2c-.2.2-.5.4-.7.6h0c0,0,.7-.6.7-.6Z"/>
    </g>
    <path class="cls-4" d="M68.6,113.3c-.4,3.5-1.5,6.1-3.2,7.8l-.7.6h0c-.4.4-.9.7-1.4.9-7.4,3.5-20.1-4.6-20.1-4.6L3,90c0-1.4,0-5.3,0-11.2,0-1.5.6-2.7,1.7-3.5.7-.5,1.5-.7,2.5-.7s.2,0,.3,0c0,0,.2,0,.3,0h0c0,0,.2,0,.2,0,0,0,0,0,0,0,.5,0,1,.2,1.5.4l.8.5,1.4.9h0l.8.6h.1c0,0,7,4.7,7,4.7h0s1.2.9,1.2.9l4.1,7.4,2.3-1.3-3.6-6.6,6.5-3.8-1.3-2.3-6.8,4-11.3-7.4h-.2c-4.4-2.3-7.2-8.5-7.5-13.6,0-.4,0-.8,0-1.2,0-6.3.2-9.6.3-11.4l35.4,22.8h0s6.2,4.1,6.2,4.1c.3.2,26.4,16.9,23.6,39.8Z"/>
    <path class="cls-2" d="M9.5,75.1c-.5-.2-1-.3-1.5-.4.8.1,1.6.5,2.3.9l-.8-.5ZM3.2,59.3c.3,5,3.1,11.3,7.5,13.5-4.1-2.4-7.1-8.5-7.5-13.5Z"/>
    <path class="cls-3" d="M126,68.6c-2.3,8.9-6.4,11.9-9.9,14.5-.3.2-.7.5-1,.7h0s-44.6,33.5-44.6,33.5c.3-1.1.6-2.4.7-3.7,1.2-10.2-2.7-20.8-11.3-30.6-6.5-7.3-13.2-11.6-13.5-11.8l-10.3-6.8h0c0,0-30.9-19.8-30.9-19.8,4-2.9,8.5-6.1,12.4-8.9h0c0,0,3.8-2.8,3.8-2.8,1.8-1.3,3.3-2.4,4.4-3.2l3.6,17.7,20.8,13.5-4.7-20.4,23.5,16.2c15.5,11.3,17,22.6,17.1,24.7.1,1.8.3,3.6.5,5.9l.3,6.8,1.9-1.3c.5-.3,2.4-1.7,5.6-4,4.1-3,9.2-6.6,10.6-7.6,0,0,0,0,0,0,0,0,0-.1,0-.2,0,0,0,0,0,0,.5-2.5,3.4-21-11.5-31.7-.3-.2-.7-.5-1-.7l-27.8-19.2,22.5,1.3-25.7-14.9-16-1c1.1-.8,2.3-1.7,3.5-2.6.4-.3.7-.6,1.1-.8.9-.7,1.8-1.4,2.8-2.1.6-.4,1.1-.8,1.7-1.3,2-1.5,4-3,5.5-4.2,0,0,0,0,.1,0,1.6-1.1,3.7-1.2,5.4-.1,0,0,0,0,0,0l32,21.1h0c0-.1,12.1,7.9,12.1,7.9h0c0,0,5.6,3.2,10.3,9.2,6.2,8,8,17,5.5,26.8Z"/>
    <polygon class="cls-2" points="21 82.8 12.7 77.2 19.7 81.8 19.7 81.8 21 82.8"/>
  </g>
  <g>
    <g>
      <path class="cls-2" d="M224.5,33.2c-2.1-3.6-5-6.4-8.8-8.4-3.8-2-8.2-2.9-13.3-2.9h-16.7v47.9h16.7c5,0,9.5-1,13.3-2.9,3.8-2,6.8-4.7,8.8-8.3,2.1-3.6,3.1-7.8,3.1-12.6s-1-9-3.1-12.7ZM213.7,57.5c-2.7,2.7-6.6,4.1-11.7,4.1h-6.8v-31.6h6.8c5,0,8.9,1.4,11.7,4.2,2.7,2.8,4.1,6.7,4.1,11.7s-1.4,8.9-4.1,11.6Z"/>
      <path class="cls-2" d="M260.3,21.8h-11.2l-17.2,48h10.1l3.2-9.1h19.1l3.2,9.1h10.1l-17.2-48ZM247.8,52.9l6.9-20,6.9,20h-13.9Z"/>
      <path class="cls-2" d="M311.4,21.9l-10.2,21.9-10.3-21.9h-10.8l16.3,31.2v16.7h9.6v-16.7l16.2-31.2h-10.7Z"/>
      <path class="cls-2" d="M167.1,21.8v48.1h-11v-36.5l-8.5,2.3-2.7-9.4,12.6-4.5h9.6Z"/>
    </g>
    <g>
      <path class="cls-2" d="M155,96.5v-14.8h-2.2v16.5h7.9v-1.8h-5.8Z"/>
      <path class="cls-2" d="M184.9,85.2v2.4c-.4-.7-1-1.4-1.9-1.8-.8-.5-1.8-.7-3-.7s-2.2.3-3.1.8c-.9.6-1.7,1.3-2.2,2.3-.5,1-.8,2.2-.8,3.5s.3,2.5.8,3.5c.5,1,1.3,1.8,2.2,2.4.9.6,2,.9,3.1.9s2.1-.2,2.9-.7c.8-.5,1.5-1.1,1.9-1.9v2.4h2.2v-13h-2.2ZM184.3,94.3c-.4.7-.9,1.3-1.6,1.7-.7.4-1.4.6-2.2.6s-1.5-.2-2.2-.6c-.7-.4-1.2-.9-1.6-1.7-.4-.7-.6-1.6-.6-2.6s.2-1.8.6-2.6c.4-.7.9-1.3,1.6-1.7.7-.4,1.4-.6,2.2-.6s1.5.2,2.2.6c.7.4,1.2.9,1.6,1.7.4.7.6,1.6.6,2.6s-.2,1.8-.6,2.6Z"/>
      <path class="cls-2" d="M211.7,85.2v7.1c0,1.4-.3,2.4-1,3.1-.7.7-1.6,1.1-2.7,1.1s-2-.3-2.7-1c-.7-.7-1-1.7-1-2.9v-7.3h-2.1v7.6c0,1.2.2,2.2.7,3.1.5.8,1.1,1.5,1.9,1.9.8.4,1.7.6,2.7.6s1.7-.2,2.4-.6c.7-.4,1.3-.9,1.7-1.6v1.9h2.2v-13h-2.2Z"/>
      <path class="cls-2" d="M239.3,86.4c-1-1-2.3-1.4-3.8-1.4s-1.7.2-2.4.5c-.7.4-1.3.9-1.7,1.5v-1.8h-2.2v13h2.2v-7.2c0-1.4.3-2.4,1-3.1.7-.7,1.6-1.1,2.7-1.1s2,.3,2.7,1c.6.7,1,1.7,1,3v7.3h2.1v-7.7c0-1.8-.5-3.2-1.5-4.1Z"/>
      <path class="cls-2" d="M266,80.7v6.9c-.5-.8-1.1-1.4-2-1.8-.9-.5-1.8-.7-2.8-.7s-2.2.3-3.2.8c-.9.6-1.7,1.3-2.2,2.3-.5,1-.8,2.2-.8,3.5s.3,2.5.8,3.5c.5,1,1.3,1.8,2.2,2.4.9.6,2,.9,3.1.9s2.1-.2,2.9-.7c.8-.5,1.5-1.1,1.9-1.9v2.4h2.2v-17.5h-2.2ZM265.5,94.3c-.4.7-.9,1.3-1.6,1.7-.7.4-1.4.6-2.2.6s-1.5-.2-2.2-.6c-.7-.4-1.2-.9-1.6-1.7-.4-.7-.6-1.6-.6-2.6s.2-1.8.6-2.6c.4-.7.9-1.3,1.6-1.7.7-.4,1.4-.6,2.2-.6s1.5.2,2.2.6c.7.4,1.2.9,1.6,1.7.4.7.6,1.6.6,2.6s-.2,1.8-.6,2.6Z"/>
      <path class="cls-2" d="M287.3,85.6c-.7.4-1.2,1-1.6,1.7v-2.1h-2.2v13h2.2v-7.1c0-2.6,1.2-3.9,3.6-3.9h.6v-2.2c-1,0-1.9.2-2.6.6Z"/>
      <path class="cls-2" d="M312.9,85.2l-4,10.5-4.1-10.5h-2.4l5.2,12.8-2.6,6.3h2.2l7.8-19.1h-2.2Z"/>
    </g>
  </g>
</svg>