<?xml version="1.0" encoding="UTF-8"?>
<svg id="Layer_1" data-name="Layer 1" xmlns="http://www.w3.org/2000/svg" version="1.1" viewBox="0 0 97.5 56.7">
  <defs>
    <style>
      .cls-1 {
        fill: #009898;
      }

      .cls-1, .cls-2, .cls-3, .cls-4 {
        stroke-width: 0px;
      }

      .cls-2 {
        fill: #70c6cb;
      }

      .cls-3 {
        fill: #fff;
      }

      .cls-4 {
        fill: #faae62;
      }

      .cls-5 {
        fill: none;
        stroke: #295363;
        stroke-miterlimit: 10;
      }
    </style>
  </defs>
  <g id="Group_14956" data-name="Group 14956">
    <path id="Path_12982" data-name="Path 12982" class="cls-3" d="M87.2,54.1c-8.7-3.5-18.9-3.8-28.3-2.7s-18.2,3.3-27.5,4.5-19.4,1.4-28.4-1.6L9.8,3.4c9,3,19.1,2.9,28.4,1.6S56.4,1.6,65.7.5s19.6-.8,28.3,2.7l-6.8,50.9Z"/>
    <g id="Group_14957" data-name="Group 14957">
      <path id="Path_12983" data-name="Path 12983" class="cls-1" d="M90.6,52.8l-3-.4c-.3,0-.5-.3-.4-.6,0-.3.3-.5.5-.5,0,0,0,0,0,0l3,.4c.3,0,.5.3.4.6,0,.3-.3.5-.5.5,0,0,0,0,0,0"/>
      <path id="Path_12984" data-name="Path 12984" class="cls-1" d="M91.1,49.1l-3-.4c-.3,0-.5-.3-.4-.6,0-.3.3-.5.5-.5,0,0,0,0,0,0l3,.4c.3,0,.5.3.4.6,0,.3-.3.5-.5.5,0,0,0,0,0,0"/>
      <path id="Path_12985" data-name="Path 12985" class="cls-1" d="M91.6,45.4l-3-.4c-.3,0-.5-.3-.4-.6,0-.3.3-.5.5-.5,0,0,0,0,0,0l3,.4c.3,0,.5.3.4.6,0,.3-.3.5-.5.5,0,0,0,0,0,0"/>
      <path id="Path_12986" data-name="Path 12986" class="cls-1" d="M92,41.8l-3-.4c-.3,0-.5-.3-.4-.6,0-.3.3-.5.5-.5,0,0,0,0,0,0l3,.4c.3,0,.5.3.4.6,0,.3-.3.5-.5.5,0,0,0,0,0,0"/>
      <path id="Path_12987" data-name="Path 12987" class="cls-1" d="M92.5,38.1l-3-.4c-.3,0-.5-.3-.4-.6,0-.3.3-.5.5-.5,0,0,0,0,0,0l3,.4c.3,0,.5.3.4.6,0,.3-.3.5-.5.5,0,0,0,0,0,0"/>
      <path id="Path_12988" data-name="Path 12988" class="cls-1" d="M92.9,34.4l-3-.4c-.3,0-.5-.3-.4-.6,0-.3.3-.5.5-.5,0,0,0,0,0,0l3,.4c.3,0,.5.3.4.6,0,.3-.3.5-.5.5,0,0,0,0,0,0"/>
      <path id="Path_12989" data-name="Path 12989" class="cls-1" d="M93.4,30.7l-3-.4c-.3,0-.5-.3-.4-.6,0-.3.3-.5.5-.5,0,0,0,0,0,0l3,.4c.3,0,.5.3.4.6,0,.3-.3.5-.5.5,0,0,0,0,0,0"/>
      <path id="Path_12990" data-name="Path 12990" class="cls-1" d="M93.9,27.1l-3-.4c-.3,0-.5-.3-.4-.6,0-.3.3-.5.5-.5,0,0,0,0,0,0l3,.4c.3,0,.5.3.4.6,0,.3-.3.5-.5.5,0,0,0,0,0,0"/>
      <path id="Path_12991" data-name="Path 12991" class="cls-1" d="M94.3,23.4l-3-.4c-.3,0-.5-.3-.4-.6,0-.3.3-.5.5-.5,0,0,0,0,0,0l3,.4c.3,0,.5.3.4.6,0,.3-.3.5-.5.5,0,0,0,0,0,0"/>
      <path id="Path_12992" data-name="Path 12992" class="cls-1" d="M94.8,19.7l-3-.4c-.3,0-.5-.3-.4-.6,0-.3.3-.5.5-.5,0,0,0,0,0,0l3,.4c.3,0,.5.3.4.6,0,.3-.3.5-.5.5,0,0,0,0,0,0"/>
      <path id="Path_12993" data-name="Path 12993" class="cls-1" d="M95.3,16.1l-3-.4c-.3,0-.5-.3-.4-.6,0-.3.3-.5.5-.5,0,0,0,0,0,0l3,.4c.3,0,.5.3.4.6,0,.3-.3.5-.5.5,0,0,0,0,0,0"/>
      <path id="Path_12994" data-name="Path 12994" class="cls-1" d="M95.7,12.4l-3-.4c-.3,0-.5-.3-.4-.6,0-.3.3-.5.5-.5,0,0,0,0,0,0l3,.4c.3,0,.5.3.4.6,0,.3-.3.5-.5.5,0,0,0,0,0,0"/>
      <path id="Path_12995" data-name="Path 12995" class="cls-1" d="M96.2,8.7l-3-.4c-.3,0-.5-.3-.4-.6,0-.3.3-.5.5-.5,0,0,0,0,0,0l3,.4c.3,0,.5.3.4.6,0,.3-.3.5-.5.5,0,0,0,0,0,0"/>
      <path id="Path_12996" data-name="Path 12996" class="cls-1" d="M96.6,5.1l-3-.4c-.3,0-.5-.3-.4-.6,0-.3.3-.5.5-.5,0,0,0,0,0,0l3,.4c.3,0,.5.3.4.6,0,.3-.3.5-.5.5,0,0,0,0,0,0"/>
    </g>
    <g id="Group_14958" data-name="Group 14958">
      <path id="Path_12997" data-name="Path 12997" class="cls-1" d="M3.5,53.3l-3-.4c-.3,0-.5-.3-.4-.6,0-.3.3-.5.5-.5,0,0,0,0,0,0l3,.4c.3,0,.5.3.4.6,0,.3-.3.5-.5.5,0,0,0,0,0,0"/>
      <path id="Path_12998" data-name="Path 12998" class="cls-1" d="M3.9,49.7l-3-.4c-.3,0-.5-.3-.4-.6,0-.3.3-.5.5-.5,0,0,0,0,0,0l3,.4c.3,0,.5.3.4.6,0,.3-.3.5-.5.5,0,0,0,0,0,0"/>
      <path id="Path_12999" data-name="Path 12999" class="cls-1" d="M4.4,46l-3-.4c-.3,0-.5-.3-.4-.6,0-.3.3-.5.5-.5,0,0,0,0,0,0l3,.4c.3,0,.5.3.4.6,0,.3-.3.5-.5.5,0,0,0,0,0,0"/>
      <path id="Path_13000" data-name="Path 13000" class="cls-1" d="M4.9,42.3l-3-.4c-.3,0-.5-.3-.4-.6,0-.3.3-.5.5-.5,0,0,0,0,0,0l3,.4c.3,0,.5.3.4.6,0,.3-.3.5-.5.5,0,0,0,0,0,0"/>
      <path id="Path_13001" data-name="Path 13001" class="cls-1" d="M5.3,38.7l-3-.4c-.3,0-.5-.3-.4-.6,0-.3.3-.5.5-.5,0,0,0,0,0,0l3,.4c.3,0,.5.3.4.6,0,.3-.3.5-.5.5,0,0,0,0,0,0"/>
      <path id="Path_13002" data-name="Path 13002" class="cls-1" d="M5.8,35l-3-.4c-.3,0-.5-.3-.4-.6,0-.3.3-.5.5-.5,0,0,0,0,0,0l3,.4c.3,0,.5.3.4.6,0,.3-.3.5-.5.5,0,0,0,0,0,0"/>
      <path id="Path_13003" data-name="Path 13003" class="cls-1" d="M6.2,31.3l-3-.4c-.3,0-.5-.3-.4-.6,0-.3.3-.5.5-.5,0,0,0,0,0,0l3,.4c.3,0,.5.3.4.6,0,.3-.3.5-.5.5,0,0,0,0,0,0"/>
      <path id="Path_13004" data-name="Path 13004" class="cls-1" d="M6.7,27.7l-3-.4c-.3,0-.5-.3-.4-.6,0-.3.3-.5.5-.5,0,0,0,0,0,0l3,.4c.3,0,.5.3.4.6,0,.3-.3.5-.5.5,0,0,0,0,0,0"/>
      <path id="Path_13005" data-name="Path 13005" class="cls-1" d="M7.2,24l-3-.4c-.3,0-.5-.3-.4-.6,0-.3.3-.5.5-.5,0,0,0,0,0,0l3,.4c.3,0,.5.3.4.6,0,.3-.3.5-.5.5,0,0,0,0,0,0"/>
      <path id="Path_13006" data-name="Path 13006" class="cls-1" d="M7.6,20.3l-3-.4c-.3,0-.5-.3-.4-.6,0-.3.3-.5.5-.5,0,0,0,0,0,0l3,.4c.3,0,.5.3.4.6,0,.3-.3.5-.5.5,0,0,0,0,0,0"/>
      <path id="Path_13007" data-name="Path 13007" class="cls-1" d="M8.1,16.6l-3-.4c-.3,0-.5-.3-.4-.6,0-.3.3-.5.5-.5,0,0,0,0,0,0l3,.4c.3,0,.5.3.4.6,0,.3-.3.5-.5.5,0,0,0,0,0,0"/>
      <path id="Path_13008" data-name="Path 13008" class="cls-1" d="M8.5,13l-3-.4c-.3,0-.5-.3-.4-.6,0-.3.3-.5.5-.5,0,0,0,0,0,0l3,.4c.3,0,.5.3.4.6,0,.3-.3.5-.5.5,0,0,0,0,0,0"/>
      <path id="Path_13009" data-name="Path 13009" class="cls-1" d="M9,9.3l-3-.4c-.3,0-.5-.3-.4-.6,0-.3.3-.5.5-.5,0,0,0,0,0,0l3,.4c.3,0,.5.3.4.6,0,.3-.3.5-.5.5,0,0,0,0,0,0"/>
      <path id="Path_13010" data-name="Path 13010" class="cls-1" d="M9.5,5.6l-3-.4c-.3,0-.5-.3-.4-.6,0-.3.3-.5.5-.5,0,0,0,0,0,0l3,.4c.3,0,.5.3.4.6,0,.3-.3.5-.5.5,0,0,0,0,0,0"/>
    </g>
    <path id="Path_13011" data-name="Path 13011" class="cls-2" d="M60.2,23.6c.3-2.3.6-4.5.9-6.8-1.2,1.3-2.3,2.6-3.5,4-1.2-1.3-2.4-2.5-3.6-3.7,1.5-1.1,3-2.2,4.5-3.3-2.3.1-4.6.4-7,.8,1.5-1.2,3-2.3,4.4-3.4-2.4.2-4.7.6-7.1,1s-4.8.8-7.1,1c1.2.8,2.4,1.6,3.7,2.3-2.3.4-4.7.6-7,.8,1.2.9,2.4,1.7,3.7,2.5-1.6,1.5-3.2,3-4.7,4.4-.8-1.3-1.6-2.6-2.4-3.9l-.9,6.8c-.8-1.3-1.6-2.7-2.4-4.1-.3,2.3-.6,4.6-.9,6.9h0c-.3,2.3-.6,4.6-.9,6.9,1.1-1.2,2.3-2.4,3.4-3.7-.3,2.3-.6,4.5-.9,6.8,1.2-1.3,2.3-2.6,3.5-4,1.2,1.3,2.4,2.5,3.6,3.7-1.5,1.1-3,2.2-4.5,3.3,2.3-.1,4.6-.4,7-.8-1.5,1.2-3,2.3-4.4,3.4,2.4-.2,4.7-.6,7.1-1s4.8-.8,7.1-1c-1.2-.8-2.4-1.6-3.7-2.3,2.3-.4,4.7-.6,7-.8-1.2-.9-2.4-1.7-3.7-2.5,1.6-1.5,3.2-3,4.7-4.4.8,1.3,1.6,2.6,2.4,3.9l.9-6.8c.8,1.3,1.6,2.7,2.4,4.1.3-2.3.6-4.6.9-6.9.3-2.3.6-4.6.9-6.9-1.1,1.2-2.3,2.4-3.4,3.7M45.2,39.1c-3.6-3.2-7-6.5-10.2-10.1,4.4-3.8,8.8-8.2,13.2-12.6,3.6,3.2,7,6.5,10.2,10.1-4.4,3.8-8.8,8.2-13.2,12.6"/>
    <path id="Path_13012" data-name="Path 13012" class="cls-2" d="M65.7.5c-9.3,1-18.2,3.3-27.5,4.5-9.3,1.2-19.4,1.4-28.4-1.6L3.1,54.3c9,3,19.1,2.9,28.4,1.6,9.3-1.2,18.1-3.5,27.5-4.5s19.6-.8,28.3,2.7l6.8-50.9C85.3-.2,75-.5,65.7.5M82.6,47.1c-7.4-1.9-15.5-1.9-23-1-9.3,1-18.2,3.3-27.5,4.5-7.5,1-15.5,1.3-23.1-.2h0S14.4,10.2,14.4,10.2c7.6,1.5,15.6,1.2,23.1.2,9.3-1.2,18.1-3.5,27.5-4.5,7.5-.8,15.6-.8,23,1l-5.4,40.1Z"/>
    <g id="Group_14959" data-name="Group 14959">
      <path id="Path_13013" data-name="Path 13013" class="cls-1" d="M9.4,44.6l-.8,5.9c2.1.4,4.3.7,6.5.9l-5.7-6.8Z"/>
      <path id="Path_13014" data-name="Path 13014" class="cls-1" d="M13.2,15.9l.8-5.9s3.6.7,6.5.9l-7.3,5Z"/>
      <path id="Path_13015" data-name="Path 13015" class="cls-1" d="M87.7,12.6l.8-5.9c-2.2-.5-4.5-.9-6.7-1.2l5.9,7.1Z"/>
      <path id="Path_13016" data-name="Path 13016" class="cls-1" d="M83.8,41.4l-.8,5.9c-2.2-.5-4.5-1-6.7-1.2l7.5-4.7Z"/>
    </g>
    <g id="Group_14960" data-name="Group 14960">
      <path id="Path_13017" data-name="Path 13017" class="cls-4" d="M48.1,17l2.5,2.3-5.1.4,2.7-2.7Z"/>
      <path id="Path_13018" data-name="Path 13018" class="cls-4" d="M35.6,29l2.6-2.3v4.9c-.6-.5-1.6-1.6-2.6-2.6"/>
      <path id="Path_13019" data-name="Path 13019" class="cls-4" d="M57.8,26.6c-.8-.9-1.6-1.7-2.4-2.5l-.3,4.9c.6-.5,1.6-1.4,2.7-2.4"/>
      <path id="Path_13020" data-name="Path 13020" class="cls-4" d="M45.2,38.6l-2.5-2.3,5.1-.4-2.7,2.7Z"/>
    </g>
    <g id="Group_14961" data-name="Group 14961">
      <path id="Path_13021" data-name="Path 13021" class="cls-5" d="M84.3,39.4l-1,7.8c-2.6-.6-5.3-1.1-8-1.3"/>
      <line id="Line_84" data-name="Line 84" class="cls-5" x1="85.2" y1="32.9" x2="84.6" y2="37.3"/>
      <path id="Path_13022" data-name="Path 13022" class="cls-5" d="M46,8.7c2.3-.4,4.6-.9,6.9-1.3"/>
      <path id="Path_13023" data-name="Path 13023" class="cls-5" d="M13,15.8l.8-5.9c1.3.3,2.5.5,3.8.6"/>
      <line id="Line_85" data-name="Line 85" class="cls-5" x1="12.5" y1="19.5" x2="12.8" y2="17.3"/>
      <path id="Path_13024" data-name="Path 13024" class="cls-5" d="M23,51.6c-2.1,0-4.2,0-6.3,0"/>
      <path id="Path_13025" data-name="Path 13025" class="cls-5" d="M47.7,48.1c-.8.1-1.6.3-2.5.5"/>
      <line id="Line_86" data-name="Line 86" class="cls-5" x1="35.9" y1="28" x2="38.9" y2="25.3"/>
      <path id="Path_13026" data-name="Path 13026" class="cls-5" d="M52.1,32.4c-.9.9-1.8,1.8-2.7,2.7"/>
      <path id="Path_13027" data-name="Path 13027" class="cls-5" d="M58,27c-1.6,1.4-3.1,2.8-4.7,4.3"/>
      <line id="Line_87" data-name="Line 87" class="cls-5" x1="40" y1="24.2" x2="44.4" y2="20"/>
    </g>
  </g>
</svg>