<?xml version="1.0" encoding="UTF-8"?>
<svg id="Layer_1" data-name="Layer 1" xmlns="http://www.w3.org/2000/svg" version="1.1" viewBox="0 0 71.3 39.5">
  <defs>
    <style>
      .cls-1 {
        fill: #70c6cb;
      }

      .cls-1, .cls-2, .cls-3 {
        stroke-width: 0px;
      }

      .cls-2 {
        fill: #f9ad67;
      }

      .cls-3 {
        fill: #295363;
      }
    </style>
  </defs>
  <g id="Group_14886" data-name="Group 14886">
    <path id="Path_12926" data-name="Path 12926" class="cls-3" d="M58.4,20.6c0-1.4-1.1-2.5-2.5-2.5h-9.3c-1.4,0-2.5,1.1-2.5,2.5,0,0,0,0,0,0v1s14.3,0,14.3,0v-1Z"/>
    <path id="Rectangle_1017" data-name="Rectangle 1017" class="cls-2" d="M18.9,8.1h6.8c1,0,1.8.8,1.8,1.8s0,0,0,0v4.9c0,1-.8,1.8-1.8,1.8h-6.8c-1,0-1.8-.8-1.8-1.8v-4.9c0-1,.8-1.8,1.8-1.8Z"/>
    <path id="Path_12927" data-name="Path 12927" class="cls-2" d="M66.1.7s2.2-1.1,3.1-.4c.8.9,1.2,2,1.2,3.2-.4,1.1-1.7,1.7-2.9,1.4-1.4-.3-1.5-4.2-1.5-4.2"/>
    <path id="Path_12928" data-name="Path 12928" class="cls-3" d="M59,39.5H1.4c-.7,0-1.2-.6-1.2-1.2s.6-1.2,1.2-1.2h58.4c2,0,2,2.4-.8,2.4"/>
    <path id="Path_12929" data-name="Path 12929" class="cls-1" d="M66.3.2C29.3-2.4,11.4,17.4,4.9,27.7c10.7-.9,21.2-2.9,31.4-6.2,0,0,0-12.4,28.3-12.4,1.3-.7,2.6-1.5,3.9-2.3,1.9-2.8,0-6.4-2.1-6.6"/>
    <path id="Path_12930" data-name="Path 12930" class="cls-2" d="M68.4,6.9s0,0,0,0c-1.3.8-2.6,1.6-3.9,2.3-1.9,1.1-2.9,10.1-4.4,12.4h-24c-10.2,3.2-20.7,5.3-31.4,6.2-1.1,1.7-2.1,3.5-2.9,5.4,8.4.4,32.9,1.5,62.6.4,1.3-.2,2.6-.6,3.9-1.1,1.2-.7,3-3.3,2.9-4.7-.4-6.2-2.9-20.9-2.9-20.9"/>
    <path id="Path_12931" data-name="Path 12931" class="cls-1" d="M1.9,33.2c-.1.3-.2.5-.3.7-.8,1.9,1.5,2.4,1.5,2.4h55.8c1.6-1.4,3.5-2.4,5.6-2.8-29.7,1.1-54.2,0-62.6-.4"/>
    <rect id="Rectangle_1018" data-name="Rectangle 1018" class="cls-1" x="3.1" y="36.3" width="55.8" height=".8"/>
  </g>
</svg>